<svg width="20" height="17" viewBox="0 0 20 17" fill="none" xmlns="http://www.w3.org/2000/svg">
<g clip-path="url(#clip0_0_119)">
<path d="M5.29448 15.8107C5.28668 15.9868 5.27888 16.1553 5.26329 16.3161C5.2243 16.6453 4.98258 16.8597 4.6473 16.8673C4.38219 16.875 4.11709 16.8673 3.85198 16.8673C3.43873 16.8673 3.18921 16.6376 3.15023 16.2318C3.13463 16.071 3.2126 15.8873 3.11124 15.7648C3.00988 15.6499 2.81494 15.7188 2.6668 15.6882C2.14438 15.5734 1.77791 15.1676 1.73112 14.6469C1.69993 14.2871 1.69993 14.2871 1.34126 14.2641C0.670694 14.2335 0.0625069 13.6592 0.0235206 13.0237C-0.0310603 12.2504 0.45237 11.6149 1.18531 11.4924C1.47381 11.4388 1.77011 11.4618 2.05861 11.4618C2.33931 11.4618 2.62001 11.4542 2.89292 11.4618C3.08785 11.4695 3.15023 11.4082 3.15023 11.2091C3.14243 10.1755 3.15023 9.14188 3.15023 8.10825C3.15023 7.67183 3.14243 7.22775 3.15023 6.79132C3.15023 6.61522 3.08785 6.56163 2.91631 6.56163C2.3783 6.56163 1.84028 6.5846 1.30227 6.53866C0.491357 6.47741 -0.101236 5.73472 0.0157233 4.95376C0.0469124 4.76234 0.187263 4.64749 0.358803 4.66281C0.530343 4.68578 0.670694 4.83125 0.639505 5.01501C0.553735 5.49737 0.935801 5.94911 1.53619 5.94145C3.32956 5.92614 5.12294 5.94145 6.91631 5.93379C7.47771 5.93379 7.82859 5.56628 7.77401 5.03032C7.73502 4.65515 7.42313 4.38717 6.97869 4.35655C6.90851 4.34889 6.83834 4.35655 6.76816 4.35655C5.29448 4.35655 3.82079 4.35655 2.34711 4.35655C1.97284 4.35655 1.59077 4.33358 1.2165 4.38717C0.998179 4.4178 0.865626 4.31826 0.834437 4.14982C0.803248 3.96606 0.904612 3.84356 1.11514 3.78231C1.2243 3.75168 1.33346 3.74402 1.44262 3.75934C1.62976 3.77465 1.71553 3.72105 1.71553 3.52198C1.70773 3.26166 1.77011 3.01665 1.93385 2.80227C2.18336 2.47304 2.51865 2.30459 2.9397 2.31225C3.10344 2.31225 3.15802 2.25866 3.15023 2.09787C3.14243 1.96005 3.14243 1.81458 3.16582 1.67676C3.2282 1.36284 3.45432 1.16377 3.77401 1.15611C4.0703 1.14846 4.3744 1.14846 4.67069 1.15611C4.99038 1.16377 5.2243 1.37815 5.26329 1.68442C5.27888 1.80692 5.29448 1.93708 5.28668 2.06724C5.27108 2.251 5.34126 2.31225 5.52839 2.31225C6.10539 2.31225 6.56543 2.67977 6.68239 3.20807C6.70578 3.31526 6.71358 3.43776 6.70578 3.55261C6.69798 3.7134 6.75257 3.77465 6.91631 3.75934C7.25939 3.73637 7.57128 3.82825 7.85198 4.02732C8.32761 4.37186 8.53814 4.97673 8.3822 5.52034C8.21066 6.09458 7.72722 6.48506 7.12683 6.53866C6.60442 6.5846 6.0742 6.54631 5.55179 6.56163C5.31007 6.56928 5.29448 6.57694 5.29448 6.80664C5.29448 8.27669 5.29448 9.73909 5.28668 11.2091C5.28668 11.4082 5.34906 11.4618 5.54399 11.4618C6.10539 11.4618 6.659 11.4235 7.2204 11.4848C7.28278 11.4924 7.35296 11.5001 7.40754 11.5307C7.63366 11.6609 7.82859 11.592 8.03132 11.4618C8.33541 11.2627 8.6629 11.079 8.98258 10.9029C9.13073 10.8187 9.18531 10.7191 9.18531 10.5507C9.17752 8.64421 9.18531 6.73773 9.18531 4.83125C9.18531 4.23404 9.38025 4.01966 9.98843 3.95075C10.4173 3.90481 10.737 3.56792 10.7526 3.13916C10.7604 2.97071 10.737 2.80993 10.7838 2.64148C10.8227 2.4807 10.9319 2.40413 11.0956 2.40413C11.2516 2.41179 11.3685 2.49601 11.3841 2.64148C11.4153 3.03197 11.4309 3.42245 11.2282 3.78231C10.9787 4.21873 10.6122 4.47905 10.1054 4.54796C9.83249 4.58624 9.83249 4.58624 9.83249 4.85422C9.83249 5.11454 9.83249 5.37487 9.83249 5.63519C9.83249 5.75004 9.86368 5.8266 9.97284 5.8802C11.4777 6.5846 12.9826 7.29666 14.4875 8.00106C14.581 8.047 14.659 8.03934 14.7448 7.9934C16.2574 7.28134 17.7623 6.56928 19.275 5.85723C19.3685 5.81129 19.3997 5.75769 19.3919 5.66581C19.3919 5.41315 19.3919 5.15283 19.3919 4.90016C19.3919 4.5939 19.3919 4.5939 19.0878 4.5403C18.542 4.45608 18.16 4.15748 17.9339 3.67511C17.8403 3.46839 17.8013 3.25401 17.8013 3.02431C17.8013 2.30459 17.8013 1.58488 17.8013 0.865167C17.8013 0.612501 17.7857 0.604844 17.5362 0.604844C17.3958 0.604844 17.2477 0.604844 17.1073 0.604844C16.8188 0.604844 16.8032 0.612501 16.8032 0.888136C16.8032 1.28628 16.8032 1.69207 16.8032 2.09021C16.7955 3.3076 15.8364 4.28764 14.5966 4.28764C13.4114 4.28764 12.5615 3.43776 12.4134 2.45007C12.3354 1.92177 12.39 1.39347 12.3744 0.865167C12.3666 0.604844 12.3666 0.597188 12.0937 0.597188C11.9222 0.597188 11.7428 0.597188 11.5713 0.597188C11.4387 0.597188 11.3841 0.65844 11.3841 0.780945C11.3841 1.0183 11.3841 1.25565 11.3841 1.48535C11.3841 1.70739 11.275 1.83755 11.0956 1.8452C10.9163 1.86052 10.776 1.73801 10.7604 1.52363C10.737 1.20205 10.7214 0.888136 10.776 0.566562C10.8305 0.214361 11.1034 -0.00767836 11.4621 -0.0153349C11.7272 -0.0229914 11.9923 -0.0153349 12.2574 -0.0153349C12.7175 -0.0153349 13.006 0.267957 13.0138 0.727349C13.0216 1.18674 13.0138 1.64613 13.0138 2.10553C13.0216 2.94774 13.6298 3.59855 14.4641 3.67511C15.2282 3.74402 15.9611 3.20807 16.1327 2.43476C16.1639 2.29694 16.1639 2.15912 16.1639 2.01365C16.1717 1.61551 16.1639 1.20971 16.1639 0.811571C16.1639 0.275613 16.4992 -0.0383045 16.9982 -2.18209e-05C17.2243 0.0152912 17.4504 -2.18209e-05 17.6765 -2.18209e-05C18.1366 -2.18209e-05 18.4329 0.28327 18.4329 0.742662C18.4407 1.48535 18.4329 2.23569 18.4329 2.97837C18.4329 3.58324 18.7214 3.8895 19.3452 3.94309C19.7194 3.97372 20.0001 4.25701 20.0001 4.62453C20.0001 7.24306 20.0001 9.85394 20.0001 12.4725C20.0001 13.1156 19.4387 13.6745 18.7838 13.6822C18.5966 13.6822 18.5576 13.7435 18.5576 13.9196C18.5654 14.4096 18.5654 14.8996 18.5576 15.3896C18.5498 15.9945 18.082 16.4768 17.466 16.4768C13.9027 16.4768 10.3315 16.4768 6.76816 16.4768C6.25354 16.4768 5.83249 16.2548 5.45822 15.9179C5.41923 15.8873 5.38025 15.849 5.34906 15.8107C5.33346 15.826 5.32566 15.826 5.29448 15.8107ZM19.3841 9.52471C19.3841 8.59061 19.3841 7.64886 19.3841 6.71476C19.3841 6.50803 19.3841 6.50038 19.1814 6.59225C17.7701 7.25837 16.3588 7.91683 14.9475 8.59061C14.6902 8.71311 14.4797 8.71311 14.2146 8.59061C12.811 7.91683 11.3919 7.25837 9.98843 6.5846C9.84028 6.51569 9.8013 6.531 9.8013 6.69945C9.8091 7.86324 9.8013 9.01938 9.8013 10.1832C9.8013 10.3899 9.8091 10.3976 9.98843 10.2904C10.2925 10.1143 10.6044 9.9305 10.9085 9.74675C11.1502 9.60127 11.3997 9.52471 11.6882 9.54002C11.8286 9.54768 11.9767 9.54768 12.1171 9.54002C12.6395 9.51705 12.9826 9.74675 13.1853 10.2291C13.5206 11.0254 14.4095 11.4465 15.2516 11.2245C15.8364 11.0713 16.2418 10.7038 16.4602 10.1525C16.5693 9.88456 16.7409 9.67018 17.0294 9.59362C17.9572 9.34861 18.581 10.0147 18.5576 10.6732C18.5342 11.4159 18.5576 12.1662 18.5498 12.9089C18.5498 13.0773 18.6044 13.1156 18.7682 13.085C19.1658 13.0084 19.3763 12.7558 19.3763 12.3193C19.3841 11.3852 19.3841 10.4588 19.3841 9.52471ZM13.0995 14.2105C13.1073 14.1186 13.045 14.0803 13.0138 14.0267C12.8344 13.7664 12.6395 13.5061 12.4602 13.2381C12.3666 13.1003 12.3744 12.9548 12.4992 12.8323C12.6005 12.7328 12.7331 12.7251 12.8578 12.7864C12.9436 12.8323 12.9904 12.9089 13.045 12.9778C13.3023 13.33 13.5518 13.6822 13.8013 14.0421C13.8793 14.1569 13.965 14.2028 14.1054 14.2028C15.314 14.1952 16.5225 14.1952 17.7311 14.2028C17.9027 14.2028 17.9494 14.1416 17.9494 13.9808C17.9416 12.9012 17.9494 11.8217 17.9494 10.7498C17.9494 10.6502 17.9416 10.543 17.9027 10.4511C17.8325 10.2674 17.6687 10.1679 17.427 10.1602C17.2555 10.1525 17.1307 10.1908 17.0606 10.3669C16.6707 11.2934 15.9611 11.837 14.9397 11.8829C13.8481 11.9289 13.0684 11.4159 12.6083 10.4435C12.5771 10.3822 12.5537 10.3286 12.5147 10.275C12.3978 10.1219 12.2185 10.1602 12.0625 10.1755C11.9222 10.1908 11.9689 10.321 11.9533 10.4052C11.93 10.6119 11.891 10.811 11.7584 10.9794C11.696 11.056 11.7194 11.1173 11.774 11.1862C11.9455 11.4159 12.1093 11.6532 12.273 11.8906C12.3978 12.082 12.3744 12.2581 12.2185 12.3653C12.0703 12.4648 11.8988 12.4342 11.7662 12.2504C11.6415 12.082 11.5245 11.9059 11.3997 11.7374C11.1502 11.3929 11.2594 11.4006 10.8617 11.6226C10.7526 11.6838 10.7526 11.7374 10.8227 11.8293C11.3608 12.5797 11.8988 13.33 12.429 14.088C12.468 14.1493 12.5147 14.2028 12.5927 14.2105C12.7565 14.2105 12.928 14.2105 13.0995 14.2105ZM11.7428 14.846C9.74672 14.846 7.75841 14.846 5.76231 14.846C5.5128 14.846 5.48941 14.8766 5.60637 15.0987C5.89487 15.6423 6.35491 15.8949 6.96309 15.8949C8.23405 15.9026 9.5128 15.8949 10.7838 15.8949C12.9436 15.8949 15.1112 15.8949 17.2711 15.8949C17.7545 15.8949 17.9416 15.7112 17.9416 15.2288C17.9416 15.1829 17.9416 15.1369 17.9416 15.0987C17.9416 14.846 17.9416 14.846 17.6843 14.846C15.7038 14.846 13.7233 14.846 11.7428 14.846ZM6.88512 12.1279C6.88512 12.1203 6.87732 12.105 6.87732 12.0973C5.03717 12.0973 3.20481 12.0973 1.36465 12.105C1.10734 12.105 0.896815 12.2428 0.756464 12.4648C0.592721 12.7251 0.584924 13.0008 0.733072 13.2611C0.889018 13.5214 1.12294 13.6592 1.44262 13.6516C2.22235 13.6516 3.00208 13.6516 3.78181 13.6516C3.87537 13.6516 3.96894 13.6516 4.05471 13.6822C4.23405 13.7281 4.32761 13.9119 4.26524 14.0727C4.20286 14.2182 4.0859 14.2794 3.92995 14.2794C3.46212 14.2794 2.99428 14.2794 2.52644 14.2794C2.45627 14.2794 2.3705 14.2564 2.33931 14.3713C2.24574 14.7388 2.51865 15.091 2.90851 15.0987C3.5167 15.1063 4.13268 15.0987 4.74087 15.1063C4.87342 15.1063 4.91241 15.068 4.88122 14.9379C4.6551 13.9655 5.18531 13.1003 5.90266 12.7098C6.23795 12.5261 6.55763 12.3193 6.88512 12.1279ZM4.6473 9.01172C4.6473 8.26903 4.6473 7.51869 4.6473 6.77601C4.6473 6.63819 4.62391 6.55397 4.46017 6.56163C4.29643 6.56928 4.13268 6.56928 3.97674 6.56163C3.82079 6.55397 3.77401 6.61522 3.77401 6.76835C3.77401 8.26904 3.77401 9.76206 3.77401 11.2627C3.77401 11.4082 3.81299 11.4771 3.96894 11.4618C4.11709 11.4542 4.26524 11.4542 4.41338 11.4618C4.59272 11.4771 4.6473 11.4082 4.6473 11.2321C4.6473 10.4971 4.6473 9.7544 4.6473 9.01172ZM7.19701 14.2182C7.71163 14.2182 8.21845 14.2182 8.73307 14.2182C8.77986 14.2182 8.83444 14.2335 8.85783 14.1952C8.89682 14.1416 8.84223 14.1033 8.81104 14.065C8.63951 13.82 8.46797 13.5903 8.30422 13.3453C8.23405 13.2458 8.16387 13.2075 8.03132 13.2305C7.65705 13.2994 7.32177 13.2075 7.06446 12.9166C6.98648 12.8323 6.92411 12.8247 6.83054 12.8859C6.59662 13.0314 6.3549 13.1692 6.11319 13.3147C5.84808 13.4755 5.66875 13.7052 5.55958 13.9808C5.46602 14.1952 5.48161 14.2182 5.71553 14.2182C6.20676 14.2182 6.69798 14.2182 7.19701 14.2182ZM4.20286 3.75934C4.76426 3.75934 5.33346 3.75168 5.89487 3.75934C6.05081 3.75934 6.09759 3.70574 6.0898 3.56027C6.082 3.15447 5.87147 2.94009 5.45822 2.93243C4.63171 2.93243 3.7974 2.93243 2.97089 2.93243C2.54984 2.93243 2.34711 3.14681 2.33931 3.55261C2.33931 3.72105 2.40169 3.75934 2.55763 3.75168C3.10344 3.75168 3.64925 3.75934 4.20286 3.75934ZM11.314 10.4435C11.3296 10.2444 11.2516 10.2827 11.1736 10.3286C10.9319 10.4741 10.6824 10.6196 10.4407 10.7651C9.5206 11.3087 8.60052 11.8446 7.68044 12.3883C7.63366 12.4189 7.54009 12.4265 7.55568 12.5108C7.57128 12.572 7.64925 12.595 7.71163 12.6179C7.84418 12.6639 7.95335 12.6179 8.06251 12.5567C9.06836 11.9671 10.082 11.3699 11.0878 10.7804C11.236 10.6808 11.2984 10.5507 11.314 10.4435ZM11.3608 14.2182C11.4309 14.2182 11.4699 14.2182 11.5089 14.2182C11.5635 14.2105 11.6415 14.2411 11.6726 14.1875C11.7038 14.1263 11.6337 14.088 11.6025 14.0421C11.1658 13.4295 10.7292 12.8247 10.3003 12.2045C10.2068 12.0667 10.1132 12.0437 9.98843 12.1432C9.95724 12.1662 9.92605 12.1892 9.88707 12.2045C9.76231 12.2581 9.74672 12.3193 9.83249 12.4342C10.2068 12.9548 10.581 13.4755 10.9475 14.0038C11.0567 14.1569 11.1814 14.2641 11.3608 14.2182ZM10.3237 14.2105C10.2847 14.1416 10.2691 14.111 10.2535 14.0803C9.96504 13.6822 9.68434 13.2764 9.39584 12.8783C9.18531 12.5873 9.18531 12.5873 8.87342 12.7864C8.77206 12.8553 8.77206 12.9089 8.83444 13.0008C9.09954 13.3606 9.35685 13.7281 9.61416 14.0957C9.66875 14.1799 9.73892 14.2105 9.84028 14.2105C9.98843 14.2105 10.1366 14.2105 10.3237 14.2105ZM4.21066 2.30459C4.68629 2.30459 4.68629 2.30459 4.6473 1.92177C4.6395 1.82223 4.60052 1.78395 4.50695 1.78395C4.31202 1.78395 4.11709 1.78395 3.92216 1.78395C3.85198 1.78395 3.7974 1.79926 3.78181 1.88349C3.70383 2.20506 3.78181 2.30459 4.11709 2.30459C4.14828 2.30459 4.17947 2.30459 4.21066 2.30459ZM4.21066 16.2471C4.67849 16.2395 4.6395 16.3237 4.6473 15.8796C4.6473 15.7648 4.59272 15.7188 4.48356 15.7265C4.33541 15.7265 4.18726 15.7265 4.03911 15.7265C3.78181 15.7265 3.78181 15.7265 3.78181 15.9792C3.78181 16.2471 3.78181 16.2471 4.06251 16.2471C4.10929 16.2471 4.16387 16.2471 4.21066 16.2471Z" fill="black"/>
<path d="M14.7681 6.01802C14.7681 6.11756 14.7681 6.22475 14.7681 6.32429C14.7603 6.47742 14.7525 6.61523 14.9475 6.6918C15.0722 6.73774 15.1034 6.87556 15.0722 7.00572C15.041 7.13588 14.9475 7.2201 14.8071 7.22776C14.5654 7.23541 14.3237 7.23541 14.0898 7.22776C13.9416 7.2201 13.848 7.13588 13.8169 6.99806C13.7857 6.85259 13.8325 6.71477 13.9806 6.66883C14.121 6.62289 14.1287 6.53101 14.1287 6.41616C14.121 6.286 14.1287 6.14819 14.1287 6.01802C14.1365 5.84192 14.1521 5.68114 13.9182 5.61223C13.8091 5.57395 13.7623 5.44378 13.7857 5.32128C13.8169 5.18346 13.9026 5.09924 14.0508 5.07627C14.5108 4.99971 14.7681 5.21409 14.7681 5.66582C14.7681 5.77302 14.7681 5.89552 14.7681 6.01802Z" fill="black"/>
</g>
<defs>
<clipPath id="clip0_0_119">
<rect width="20" height="16.875" fill="white"/>
</clipPath>
</defs>
</svg>
