<svg width="20" height="22" viewBox="0 0 20 22" fill="none" xmlns="http://www.w3.org/2000/svg">
<g clip-path="url(#clip0_0_107)">
<path d="M10.6874 6.79212C10.9675 6.33698 11.2563 5.94311 11.6327 5.61926C12.4992 4.87527 13.497 4.53392 14.6349 4.57768C14.7662 4.58643 14.8449 4.56017 14.9149 4.43764C15.3263 3.73742 15.9128 3.24726 16.6655 2.94967C16.788 2.89716 16.8581 2.82713 16.9193 2.7046C17.1294 2.26696 17.5933 2.03939 18.0834 2.11816C18.5211 2.18818 18.8974 2.59956 18.9412 3.02845C18.9937 3.55361 18.7399 3.98249 18.2847 4.17505C17.8471 4.35886 17.3307 4.23632 17.0506 3.84245C16.9281 3.67615 16.8318 3.6849 16.6742 3.77243C16.2979 3.98249 15.974 4.24508 15.7202 4.59519C15.6414 4.70022 15.6327 4.76149 15.7815 4.814C16.8493 5.19037 17.6458 5.88184 18.1622 6.8884C18.241 7.0372 18.4073 7.09847 18.4948 7.22976C18.7136 7.57987 18.9937 7.81619 19.3788 8.00875C19.9215 8.27133 20.1316 8.95405 19.9653 9.54048C19.7902 10.1357 19.2738 10.5383 18.6524 10.547C17.8471 10.547 17.0506 10.5558 16.2454 10.547C16.0703 10.547 16.0265 10.5908 16.0441 10.7746C16.0966 11.5974 16.0703 12.4201 16.009 13.2429C15.8953 14.6521 15.5276 16.0088 15.1775 17.3742C15.1338 17.5492 15.1163 17.7155 15.1163 17.8906C15.1163 18.7834 15.1163 19.6849 15.1163 20.5777C15.1163 20.9365 15.0025 21.0503 14.6436 21.0503C12.1403 21.0503 9.63705 21.0503 7.14252 21.0503C6.80116 21.0503 6.68738 20.9365 6.68738 20.5864C6.68738 20.2188 6.67862 19.8424 6.68738 19.4748C6.68738 19.3173 6.63486 19.2648 6.47731 19.2473C5.67206 19.1685 4.86681 19.0722 4.07031 18.9847C3.61517 18.9322 3.53639 18.8446 3.53639 18.3895C3.53639 16.9103 3.53639 15.4311 3.53639 13.9519C3.53639 13.7856 3.49263 13.6718 3.36134 13.558C3.00247 13.2516 2.66112 12.9365 2.31976 12.6214C2.08344 12.4026 2.06593 12.2538 2.24974 11.9912C2.70488 11.3523 3.15127 10.6958 3.62392 10.0744C3.84274 9.78556 3.93026 9.47921 3.97403 9.1291C4.0528 8.43764 4.07906 8.42013 4.76177 8.42013C6.48606 8.42013 8.2191 8.41138 9.94339 8.42888C10.171 8.42888 10.2497 8.35011 10.2672 8.14004C10.311 7.75492 10.3198 7.75492 9.9784 7.57112C9.78584 7.46608 9.59328 7.3698 9.40072 7.25602C9.29569 7.19475 9.21692 7.2035 9.12064 7.25602C8.86681 7.40481 8.61298 7.5361 8.35915 7.67615C8.2016 7.76368 8.0353 7.78993 7.8865 7.67615C7.7377 7.56236 7.7202 7.40481 7.75521 7.22101C7.81648 6.94092 7.85149 6.66083 7.91276 6.38074C7.93902 6.25821 7.90401 6.17068 7.81648 6.0919C7.60641 5.89934 7.4051 5.70678 7.19503 5.51422C7.06374 5.39168 6.98497 5.24289 7.03749 5.06783C7.09 4.88403 7.24755 4.7965 7.42261 4.7965C7.66768 4.7965 7.7377 4.69147 7.7202 4.46389C7.70269 4.11379 7.71145 3.76368 7.7202 3.41357C7.7202 3.27352 7.68519 3.19475 7.53639 3.14223C6.9237 2.92341 6.6086 2.41575 6.67862 1.78556C6.73989 1.23414 7.16878 0.814004 7.79022 0.717724C7.8865 0.700219 7.93902 0.647702 8.00029 0.577681C8.63048 -0.19256 9.65455 -0.19256 10.2847 0.577681C10.3548 0.665208 10.4248 0.708972 10.5386 0.717724C11.0637 0.778993 11.4839 1.17287 11.5977 1.68928C11.7114 2.18818 11.4926 2.73085 11.0462 2.99344C10.8624 3.09847 10.8187 3.22101 10.8274 3.41357C10.8362 3.76368 10.8449 4.11379 10.8274 4.46389C10.8187 4.68271 10.8799 4.7965 11.1163 4.78775C11.2213 4.78775 11.3176 4.82276 11.3963 4.89278C11.5714 5.05033 11.5714 5.2779 11.3876 5.47046C11.2125 5.64551 11.0375 5.82057 10.8449 5.97812C10.6524 6.13567 10.5823 6.31072 10.6611 6.54705C10.6524 6.61707 10.6611 6.67834 10.6874 6.79212ZM9.52326 9.14661C8.00029 9.14661 6.47731 9.14661 4.95433 9.14661C4.76177 9.14661 4.67425 9.19912 4.66549 9.40044C4.64799 9.78556 4.50794 10.1094 4.27162 10.4158C3.86024 10.9497 3.48387 11.5186 3.08125 12.07C2.99372 12.1838 2.98497 12.2538 3.10751 12.3589C3.42261 12.6214 3.71145 12.9015 4.02654 13.1729C4.17534 13.3042 4.24536 13.453 4.23661 13.6455C4.22786 13.9694 4.23661 14.302 4.23661 14.6258C4.23661 14.7046 4.23661 14.8009 4.3504 14.8009C4.8318 14.8096 5.3132 14.8621 5.71582 14.4858C5.89963 14.3107 6.13595 14.3282 6.28475 14.4945C6.43355 14.6608 6.40729 14.8709 6.20598 15.0547C5.86462 15.3523 5.4795 15.5361 5.0156 15.5361C4.81429 15.5361 4.60422 15.5361 4.40291 15.5361C4.29788 15.5361 4.24536 15.5799 4.24536 15.6937C4.24536 16.4989 4.24536 17.2954 4.24536 18.1007C4.24536 18.2057 4.28913 18.2582 4.40291 18.267C4.683 18.2932 4.97184 18.3282 5.25193 18.3545C5.82085 18.4158 6.38103 18.477 6.94121 18.5383C7.30882 18.5821 7.39635 18.6958 7.39635 19.0722C7.39635 19.3961 7.4051 19.7112 7.39635 20.035C7.38759 20.2538 7.44886 20.3239 7.67643 20.3239C9.15565 20.3151 10.6349 20.3151 12.1141 20.3151C12.788 20.3151 13.4532 20.3063 14.1272 20.3151C14.3198 20.3151 14.381 20.2538 14.3723 20.0613C14.3635 19.6236 14.3898 19.186 14.3635 18.7484C14.3198 17.8731 14.4335 17.0241 14.6786 16.1838C15.1863 14.4245 15.3613 12.6214 15.2913 10.8009C15.2826 10.5996 15.2388 10.4508 15.0375 10.3457C14.6611 10.1444 14.4335 9.80306 14.3898 9.38293C14.3635 9.15536 14.2672 9.13786 14.0834 9.13786C12.5517 9.15536 11.0375 9.14661 9.52326 9.14661ZM17.1819 9.82057C17.602 9.82057 18.0309 9.82057 18.4511 9.82057C18.5736 9.82057 18.6961 9.81182 18.8187 9.76805C19.1075 9.67177 19.2651 9.40044 19.23 9.07659C19.2038 8.7965 18.9762 8.55142 18.6874 8.53392C18.3898 8.51641 18.2322 8.39387 18.1447 8.10503C18.0134 7.6849 17.6195 7.40481 17.1907 7.40481C16.7618 7.39606 16.3504 7.6849 16.2191 8.11378C16.1316 8.39387 15.9828 8.51641 15.6939 8.53392C15.3788 8.55142 15.1513 8.814 15.1338 9.1291C15.1163 9.53173 15.3876 9.81182 15.834 9.81182C16.2804 9.82057 16.7268 9.82057 17.1819 9.82057ZM17.0681 6.65208C17.0594 6.5558 16.9893 6.50328 16.9368 6.44201C16.0178 5.49672 14.8974 5.13786 13.6108 5.4267C12.2454 5.73304 11.23 6.82713 10.9937 8.20131C10.985 8.27133 10.95 8.36761 11.0287 8.39387C11.1863 8.44639 11.3613 8.43764 11.5276 8.40263C11.6502 8.37637 11.6239 8.23632 11.6502 8.14004C12.1053 6.23195 14.311 5.33042 15.9303 6.42451C16.2891 6.66958 16.5955 6.84464 17.0156 6.66083C17.0244 6.66083 17.0419 6.66083 17.0681 6.65208ZM9.10313 2.46827C9.48825 2.46827 9.87337 2.47702 10.2585 2.46827C10.4948 2.46827 10.7049 2.3895 10.8012 2.14442C10.9412 1.78556 10.6961 1.46171 10.2585 1.46171C9.99591 1.46171 9.83836 1.37418 9.70707 1.1291C9.45324 0.63895 8.79678 0.630197 8.5342 1.1116C8.39416 1.36543 8.22786 1.46171 7.94777 1.45295C7.7202 1.4442 7.51889 1.54048 7.43136 1.77681C7.30007 2.13567 7.53639 2.44201 7.96527 2.45952C8.34164 2.47702 8.72676 2.46827 9.10313 2.46827ZM15.7902 7.30853C15.7727 7.21225 15.7027 7.17724 15.6502 7.13348C14.5998 6.32823 13.0681 6.71335 12.5079 7.92123C12.2891 8.40263 12.3154 8.43764 12.8405 8.42013C12.9456 8.42013 13.0156 8.40263 13.0594 8.28884C13.4182 7.30853 14.6436 7.08972 15.3351 7.71991C15.3788 7.75492 15.4401 7.82495 15.4839 7.77243C15.6064 7.62363 15.6939 7.45733 15.7902 7.30853ZM8.63924 6.61707C8.67425 6.63457 8.70926 6.61707 8.73552 6.59956C9.05061 6.36324 9.37447 6.29322 9.70707 6.5733C9.74208 6.59956 9.7946 6.62582 9.82961 6.59081C9.88212 6.54705 9.86462 6.47702 9.83836 6.42451C9.71582 6.0919 9.82086 5.82932 10.0922 5.62801C10.1447 5.593 10.2235 5.54923 10.1972 5.47921C10.171 5.40044 10.0834 5.4267 10.0222 5.4267C9.69832 5.41794 9.46199 5.2954 9.35696 4.9628C9.3307 4.89278 9.3132 4.80525 9.22567 4.76149C9.20816 4.78775 9.17315 4.814 9.1644 4.84902C9.05061 5.24289 8.79678 5.4442 8.38541 5.4267C8.3504 5.4267 8.30663 5.4267 8.28913 5.47046C8.27162 5.53173 8.31538 5.56674 8.35915 5.593C8.70926 5.82932 8.74427 6.14442 8.63048 6.51203C8.63048 6.54705 8.61298 6.58206 8.63924 6.61707ZM10.0309 4.58643C10.0484 4.58643 10.0572 4.57768 10.0747 4.57768C10.0747 4.17505 10.0747 3.76368 10.0747 3.36105C10.0747 3.25602 10.0397 3.19475 9.92589 3.19475C9.4795 3.19475 9.03311 3.19475 8.59547 3.19475C8.49919 3.19475 8.44668 3.23851 8.44668 3.33479C8.44668 3.74617 8.44668 4.15755 8.44668 4.56893C8.60422 4.29759 8.73552 4.02626 8.86681 3.75492C8.94558 3.58862 9.04186 3.43982 9.24317 3.43982C9.44449 3.43982 9.55827 3.56236 9.63705 3.73742C9.75959 4.02626 9.89088 4.30635 10.0309 4.58643ZM17.8734 2.86214C17.7071 2.86214 17.5495 3.01969 17.5495 3.186C17.5495 3.3523 17.7071 3.50985 17.8734 3.50985C18.0397 3.50985 18.1972 3.3523 18.1972 3.186C18.1972 3.01094 18.0397 2.85339 17.8734 2.86214ZM13.8296 8.41138C14.0834 8.41138 14.276 8.41138 14.4686 8.41138C14.5911 8.41138 14.6699 8.32385 14.6786 8.22757C14.6874 8.12254 14.5648 8.13129 14.4948 8.12254C14.2322 8.08753 14.0309 8.17505 13.8296 8.41138Z" fill="black"/>
<path d="M12.2627 3.36106C12.2802 2.76587 12.4727 2.23196 12.8491 1.76806C12.9629 1.63677 12.9804 1.50548 12.9629 1.34793C12.9279 0.814014 13.1467 0.402635 13.6106 0.157559C14.057 -0.0787649 14.5121 -0.043754 14.9322 0.245086C15.4487 0.612701 15.5975 1.33918 15.2736 1.88185C14.941 2.44202 14.2408 2.65209 13.6543 2.372C13.383 2.24071 13.3918 2.24071 13.243 2.51204C13.0767 2.80964 13.0241 3.12474 12.9891 3.45734C12.9629 3.76369 12.8316 3.91248 12.5953 3.89498C12.3677 3.87747 12.2539 3.72867 12.2539 3.42233C12.2627 3.40482 12.2627 3.37857 12.2627 3.36106ZM14.2145 0.752745C13.9432 0.743992 13.7069 0.971563 13.7069 1.2429C13.6981 1.51423 13.9344 1.75056 14.2058 1.75056C14.4683 1.75056 14.6959 1.53174 14.7047 1.26916C14.7134 1.00657 14.4859 0.761498 14.2145 0.752745Z" fill="black"/>
<path d="M1.39209 6.50327C1.40084 5.92558 1.76846 5.45294 2.32863 5.30414C2.8713 5.15534 3.44898 5.40042 3.72907 5.89933C3.79909 6.02186 3.86911 6.09189 4.01791 6.11814C4.63935 6.24944 5.14701 6.57329 5.52338 7.0897C5.68093 7.31727 5.67218 7.53609 5.48837 7.66738C5.31332 7.79867 5.08574 7.75491 4.91944 7.53609C4.70062 7.24725 4.42929 7.04593 4.09668 6.91464C3.93914 6.85337 3.85161 6.87088 3.76408 7.04593C3.519 7.55359 3.0376 7.79867 2.46868 7.7374C1.98728 7.68488 1.55839 7.29976 1.43585 6.80086C1.4096 6.70458 1.4096 6.59955 1.39209 6.50327ZM3.14264 6.50327C3.14264 6.23193 2.89756 6.00436 2.63498 6.00436C2.3724 6.01311 2.15358 6.23193 2.14483 6.49451C2.14483 6.76585 2.3724 7.00217 2.64373 7.00217C2.91507 7.01092 3.15139 6.7746 3.14264 6.50327Z" fill="black"/>
<path d="M3.85996 3.34357C3.86871 3.08974 4.06127 2.75714 4.4639 2.57333C4.86653 2.38077 5.26915 2.42453 5.61051 2.71337C5.96062 3.00221 6.06565 3.37858 5.95187 3.81622C5.9081 3.96501 5.93436 4.07005 6.02189 4.19258C6.45952 4.82278 6.69585 5.51425 6.6871 6.28449C6.6871 6.53832 6.5558 6.69587 6.33699 6.70462C6.11817 6.71337 5.96937 6.58208 5.95187 6.3195C5.91685 5.76808 5.78556 5.24291 5.49672 4.76151C5.40044 4.60396 5.31292 4.55145 5.1116 4.58646C4.42889 4.70024 3.85121 4.21009 3.85996 3.34357ZM5.24289 3.53613C5.24289 3.36983 5.08534 3.21228 4.9278 3.21228C4.76149 3.21228 4.60394 3.36983 4.60394 3.53613C4.60394 3.70243 4.76149 3.85998 4.91904 3.85998C5.08534 3.85998 5.24289 3.70243 5.24289 3.53613Z" fill="black"/>
<path d="M1.47064 4.07003C1.15554 4.05252 0.866703 4.11379 0.577863 4.20132C0.297775 4.2976 0.0877094 4.21883 0.0176875 4.00001C-0.0523344 3.78119 0.0614512 3.59738 0.341539 3.49235C0.752917 3.34355 1.1818 3.27353 1.62819 3.29979C1.70697 3.30854 1.78574 3.31729 1.86451 3.3348C2.05707 3.38732 2.15335 3.52736 2.13585 3.72867C2.11834 3.92999 1.98705 4.03502 1.79449 4.06128C1.68071 4.07878 1.56692 4.07003 1.47064 4.07003Z" fill="black"/>
<path d="M3.88648 4.56018C3.88648 4.72648 3.82521 4.83152 3.70267 4.90154C3.57138 4.97156 3.43134 4.97156 3.3088 4.87528C3.15125 4.75274 3.00245 4.62145 2.87116 4.48141C2.73987 4.35012 2.73112 4.19257 2.81865 4.03502C2.90617 3.88622 3.05497 3.8162 3.21252 3.86872C3.51011 3.97375 3.72018 4.19257 3.87773 4.4639C3.88648 4.49891 3.88648 4.54268 3.88648 4.56018Z" fill="black"/>
<path d="M6.73089 12.2976C6.00442 12.2713 5.4705 11.9475 5.1379 11.2998C5.00661 11.0547 5.05912 10.8359 5.25168 10.7309C5.453 10.6258 5.64556 10.6958 5.79435 10.9409C6.08319 11.4311 6.46831 11.6236 6.97597 11.5274C7.29982 11.4661 7.52739 11.2735 7.68494 10.9934C7.73746 10.8972 7.78998 10.7921 7.88626 10.7396C8.03505 10.6608 8.18385 10.6608 8.31514 10.7746C8.47269 10.9059 8.48144 11.081 8.39391 11.256C8.07882 11.8862 7.57991 12.2451 6.87094 12.2976C6.81842 12.2976 6.77466 12.2976 6.73089 12.2976Z" fill="black"/>
</g>
<defs>
<clipPath id="clip0_0_107">
<rect width="20" height="21.0503" fill="white"/>
</clipPath>
</defs>
</svg>
