<svg width="16" height="14" viewBox="0 0 16 14" fill="none" xmlns="http://www.w3.org/2000/svg">
<rect y="2.23999" width="16" height="1.12" rx="0.56" fill="#101E2B"/>
<rect y="10.64" width="16" height="1.12" rx="0.56" fill="#101E2B"/>
<path d="M12.5333 11.2C12.5333 12.3418 11.6613 13.2 10.6667 13.2C9.67207 13.2 8.8 12.3418 8.8 11.2C8.8 10.0582 9.67207 9.20002 10.6667 9.20002C11.6613 9.20002 12.5333 10.0582 12.5333 11.2Z" fill="#101E2B" stroke="#101E2B" stroke-width="1.6"/>
<path d="M7.95155 2.79994C7.95155 3.94174 7.07948 4.79994 6.08488 4.79994C5.09028 4.79994 4.21821 3.94174 4.21821 2.79994C4.21821 1.65814 5.09028 0.799939 6.08488 0.799939C7.07948 0.799939 7.95155 1.65814 7.95155 2.79994Z" fill="#101E2B" stroke="#101E2B" stroke-width="1.6"/>
</svg>
