<svg width="88" height="48" viewBox="0 0 88 48" fill="none" xmlns="http://www.w3.org/2000/svg">
<path d="M58.3903 13.784C59.1263 13.784 59.7556 13.8907 60.2783 14.104C60.801 14.3067 61.3076 14.6267 61.7983 15.064L60.9663 15.992C60.5503 15.6613 60.1396 15.4213 59.7343 15.272C59.3396 15.112 58.913 15.032 58.4543 15.032C57.8783 15.032 57.4036 15.1653 57.0303 15.432C56.657 15.6987 56.4703 16.088 56.4703 16.6C56.4703 16.92 56.5343 17.192 56.6623 17.416C56.7903 17.6293 57.025 17.8267 57.3663 18.008C57.7183 18.1893 58.225 18.3813 58.8863 18.584C59.5796 18.7973 60.1556 19.0267 60.6143 19.272C61.073 19.5173 61.441 19.8587 61.7183 20.296C62.0063 20.7227 62.1503 21.2667 62.1503 21.928C62.1503 22.568 61.9903 23.1333 61.6703 23.624C61.361 24.1147 60.9076 24.4987 60.3103 24.776C59.7236 25.0533 59.025 25.192 58.2143 25.192C56.689 25.192 55.441 24.7173 54.4703 23.768L55.3023 22.84C55.7503 23.2027 56.2036 23.48 56.6623 23.672C57.121 23.8533 57.633 23.944 58.1983 23.944C58.881 23.944 59.4463 23.7787 59.8943 23.448C60.3423 23.1067 60.5663 22.616 60.5663 21.976C60.5663 21.6133 60.497 21.3147 60.3583 21.08C60.2196 20.8347 59.9796 20.616 59.6383 20.424C59.3076 20.232 58.8223 20.04 58.1823 19.848C57.0516 19.5067 56.225 19.096 55.7023 18.616C55.1796 18.136 54.9183 17.4853 54.9183 16.664C54.9183 16.1093 55.0623 15.6133 55.3503 15.176C55.649 14.7387 56.0596 14.3973 56.5823 14.152C57.1156 13.9067 57.7183 13.784 58.3903 13.784ZM69.9891 23.032C69.9891 23.3733 70.0477 23.6293 70.1651 23.8C70.2824 23.96 70.4584 24.0827 70.6931 24.168L70.3571 25.192C69.9197 25.1387 69.5677 25.016 69.3011 24.824C69.0344 24.632 68.8371 24.3333 68.7091 23.928C68.1437 24.7707 67.3064 25.192 66.1971 25.192C65.3651 25.192 64.7091 24.9573 64.2291 24.488C63.7491 24.0187 63.5091 23.4053 63.5091 22.648C63.5091 21.752 63.8291 21.064 64.4691 20.584C65.1197 20.104 66.0371 19.864 67.2211 19.864H68.5171V19.24C68.5171 18.6427 68.3731 18.216 68.0851 17.96C67.7971 17.704 67.3544 17.576 66.7571 17.576C66.1384 17.576 65.3811 17.7253 64.4851 18.024L64.1171 16.952C65.1624 16.568 66.1331 16.376 67.0291 16.376C68.0211 16.376 68.7624 16.6213 69.2531 17.112C69.7437 17.592 69.9891 18.28 69.9891 19.176V23.032ZM66.5331 24.088C67.3757 24.088 68.0371 23.6507 68.5171 22.776V20.84H67.4131C65.8557 20.84 65.0771 21.416 65.0771 22.568C65.0771 23.0693 65.1997 23.448 65.4451 23.704C65.6904 23.96 66.0531 24.088 66.5331 24.088ZM76.2621 25H74.4861L71.5741 16.568H73.1741L75.3821 23.688L77.5741 16.568H79.1261L76.2621 25ZM87.1146 20.536C87.1146 20.7813 87.1039 21.032 87.0826 21.288H81.7066C81.7706 22.216 82.0052 22.8987 82.4106 23.336C82.8159 23.7733 83.3386 23.992 83.9786 23.992C84.3839 23.992 84.7572 23.9333 85.0986 23.816C85.4399 23.6987 85.7972 23.512 86.1706 23.256L86.8106 24.136C85.9146 24.84 84.9332 25.192 83.8666 25.192C82.6932 25.192 81.7759 24.808 81.1146 24.04C80.4639 23.272 80.1386 22.216 80.1386 20.872C80.1386 19.9973 80.2772 19.224 80.5546 18.552C80.8426 17.8693 81.2479 17.336 81.7706 16.952C82.3039 16.568 82.9279 16.376 83.6426 16.376C84.7626 16.376 85.6212 16.744 86.2186 17.48C86.8159 18.216 87.1146 19.2347 87.1146 20.536ZM85.6586 20.104C85.6586 19.272 85.4932 18.6373 85.1626 18.2C84.8319 17.7627 84.3359 17.544 83.6746 17.544C82.4692 17.544 81.8132 18.4293 81.7066 20.2H85.6586V20.104Z" fill="black"/>
<g filter="url(#filter0_d_0_320)">
<circle cx="24" cy="20" r="20" fill="white"/>
<circle cx="24" cy="20" r="19.5" stroke="#F8F8F8"/>
</g>
<path d="M27.4671 12.584L27.4461 12.5831L27.425 12.5834C26.5963 12.5957 25.7837 12.8161 25.0688 13.2249C24.6714 13.4522 24.3115 13.7336 24 14.0595C23.6885 13.7336 23.3286 13.4522 22.9312 13.2249L22.5603 13.8734L22.9312 13.2249C22.2163 12.8161 21.4037 12.5957 20.575 12.5834L20.5539 12.5831L20.5329 12.584C19.2245 12.6381 17.9843 13.1837 17.0859 14.1125C16.1897 15.039 15.7067 16.2725 15.7531 17.5463C15.7572 18.7536 16.2655 19.9395 16.9458 20.9999C17.6346 22.0735 18.5431 23.0854 19.4398 23.9545C21.234 25.6936 23.06 26.9366 23.2176 27.0436L23.2195 27.0449L23.5806 27.2884L24 27.5713L24.4194 27.2884L24.7805 27.0449L24.7807 27.0447C24.9403 26.937 26.7662 25.6941 28.5602 23.955C29.4569 23.0857 30.3654 22.0738 31.0542 21.0001C31.7346 19.9396 32.2428 18.7535 32.247 17.5463C32.2933 16.2724 31.8103 15.039 30.9141 14.1125C30.0157 13.1837 28.7755 12.6381 27.4671 12.584Z" stroke="black" stroke-width="1.5"/>
<defs>
<filter id="filter0_d_0_320" x="0" y="0" width="48" height="48" filterUnits="userSpaceOnUse" color-interpolation-filters="sRGB">
<feFlood flood-opacity="0" result="BackgroundImageFix"/>
<feColorMatrix in="SourceAlpha" type="matrix" values="0 0 0 0 0 0 0 0 0 0 0 0 0 0 0 0 0 0 127 0" result="hardAlpha"/>
<feOffset dy="4"/>
<feGaussianBlur stdDeviation="2"/>
<feComposite in2="hardAlpha" operator="out"/>
<feColorMatrix type="matrix" values="0 0 0 0 0 0 0 0 0 0 0 0 0 0 0 0 0 0 0.1 0"/>
<feBlend mode="normal" in2="BackgroundImageFix" result="effect1_dropShadow_0_320"/>
<feBlend mode="normal" in="SourceGraphic" in2="effect1_dropShadow_0_320" result="shape"/>
</filter>
</defs>
</svg>
