<svg width="20" height="19" viewBox="0 0 20 19" fill="none" xmlns="http://www.w3.org/2000/svg">
<path d="M9.9883 19C6.8538 19 3.74269 19 0.608187 19C0.538012 19 0.467836 19 0.397661 19C0.140351 19 0 18.8529 0 18.5832C0 18.3626 0 18.1665 0 17.9458C0 15.0774 0 12.209 0 9.34064C0 8.92387 0.116959 8.80129 0.51462 8.80129C1.82456 8.80129 3.1345 8.80129 4.44444 8.80129C4.72515 8.80129 4.72515 8.80129 4.72515 8.5071C4.72515 7.6 4.67836 7.7471 5.40351 7.30581C6.76023 6.49677 8.11696 5.71226 9.47368 4.90323C9.59064 4.82968 9.63743 4.75613 9.63743 4.60903C9.63743 3.26065 9.63743 1.91226 9.63743 0.563871C9.63743 0.490323 9.63743 0.416774 9.63743 0.367742C9.66082 0.147097 9.80117 0 9.9883 0C10.1988 0 10.3392 0.147097 10.3392 0.367742C10.3626 0.784516 10.3626 0.784516 10.7602 0.784516C11.3684 0.784516 12 0.784516 12.6082 0.784516C13.0292 0.784516 13.1462 0.907097 13.1462 1.34839C13.1462 1.39742 13.1462 1.44645 13.1462 1.52C13.1462 1.64258 13.193 1.69161 13.3099 1.69161C13.6374 1.69161 13.9883 1.69161 14.3158 1.69161C14.6667 1.69161 14.8538 1.93677 14.7135 2.25548C14.4795 2.77032 14.4795 3.26065 14.7135 3.77548C14.8538 4.09419 14.6667 4.36387 14.3392 4.36387C13.4503 4.36387 12.5614 4.36387 11.6725 4.36387C11.3684 4.36387 11.2281 4.19226 11.2281 3.87355C11.2281 3.43226 11.2749 3.48129 10.8304 3.48129C10.3392 3.48129 10.3392 3.48129 10.3392 3.97161C10.3392 4.19226 10.3392 4.43742 10.3392 4.65806C10.3392 4.78065 10.386 4.85419 10.4795 4.92774C11.9532 5.78581 13.4035 6.66839 14.8772 7.50194C15.1345 7.64903 15.2515 7.84516 15.2281 8.13935C15.2281 8.28645 15.2281 8.43355 15.2281 8.55613C15.2047 8.72774 15.2749 8.80129 15.462 8.80129C15.9766 8.80129 16.4912 8.80129 17.0292 8.80129C17.8246 8.80129 18.6433 8.80129 19.4386 8.80129C19.8596 8.80129 19.9766 8.92387 19.9766 9.36516C19.9766 12.4052 19.9766 15.4206 19.9766 18.4606C19.9766 18.9019 19.883 19 19.4386 19C16.3041 19 13.1462 19 9.9883 19ZM5.45029 13.1897C5.45029 14.7832 5.45029 16.4013 5.45029 17.9948C5.45029 18.191 5.52047 18.24 5.68421 18.24C6.08187 18.2155 6.47953 18.2155 6.90058 18.24C7.08772 18.24 7.1345 18.191 7.1345 17.9948C7.1345 16.6465 7.1345 15.2981 7.1345 13.9497C7.1345 13.5329 7.25146 13.4103 7.64912 13.4103C9.21637 13.4103 10.7836 13.4103 12.3509 13.4103C12.7485 13.4103 12.8655 13.5084 12.8655 13.9497C12.8655 15.2981 12.8655 16.671 12.8655 18.0194C12.8655 18.191 12.9123 18.2645 13.076 18.2645C13.4737 18.2645 13.8947 18.24 14.2924 18.2645C14.5029 18.2645 14.5497 18.191 14.5497 17.9948C14.5263 14.8323 14.5731 11.6697 14.5263 8.5071C14.5263 8.26194 14.4327 8.11484 14.2456 7.99226C12.8889 7.20774 11.5322 6.39871 10.1754 5.61419C10.0351 5.54065 9.94152 5.54065 9.82456 5.61419C8.44444 6.44774 7.06433 7.25677 5.66082 8.06581C5.52047 8.16387 5.45029 8.26194 5.45029 8.43355C5.45029 10.0026 5.45029 11.5961 5.45029 13.1897ZM0.725146 13.9006C0.725146 15.249 0.725146 16.6219 0.725146 17.9703C0.725146 18.1665 0.77193 18.24 0.959064 18.24C2.12865 18.24 3.32164 18.24 4.49123 18.24C4.67836 18.24 4.72515 18.191 4.72515 17.9948C4.72515 15.2735 4.72515 12.5768 4.72515 9.85548C4.72515 9.65936 4.67836 9.58581 4.46784 9.58581C3.29825 9.58581 2.12865 9.58581 0.959064 9.58581C0.748538 9.58581 0.701754 9.65936 0.701754 9.85548C0.725146 11.2039 0.725146 12.5523 0.725146 13.9006ZM19.2749 13.9252C19.2749 12.5523 19.2749 11.2039 19.2749 9.83097C19.2749 9.63484 19.2281 9.56129 19.0409 9.56129C17.8713 9.56129 16.7018 9.56129 15.5322 9.56129C15.345 9.56129 15.2749 9.61032 15.2749 9.83097C15.2749 12.5523 15.2749 15.249 15.2749 17.9703C15.2749 18.1665 15.3216 18.24 15.5322 18.24C16.6784 18.24 17.848 18.24 18.9942 18.24C19.2749 18.24 19.2749 18.24 19.2749 17.9458C19.2749 16.5974 19.2749 15.249 19.2749 13.9252ZM7.85965 16.1806C7.85965 16.7935 7.85965 17.3819 7.85965 17.9948C7.85965 18.1665 7.88304 18.24 8.07018 18.2155C8.51462 18.2155 8.98246 18.2155 9.4269 18.2155C9.56725 18.2155 9.63743 18.1665 9.63743 18.0194C9.63743 16.7935 9.63743 15.5923 9.63743 14.3665C9.63743 14.1948 9.59064 14.1458 9.4269 14.1458C8.98246 14.1458 8.53801 14.1458 8.09357 14.1458C7.90643 14.1458 7.83626 14.1948 7.83626 14.391C7.88304 15.0039 7.85965 15.5923 7.85965 16.1806ZM12.117 16.1806C12.117 15.5923 12.117 14.9794 12.117 14.391C12.117 14.2194 12.0702 14.1458 11.9064 14.1458C11.462 14.1458 11.0175 14.1458 10.5731 14.1458C10.4094 14.1458 10.3626 14.1948 10.3626 14.3665C10.3626 15.5677 10.3626 16.7935 10.3626 17.9948C10.3626 18.1665 10.4327 18.2155 10.5731 18.2155C11.0175 18.2155 11.462 18.2155 11.9064 18.2155C12.0702 18.2155 12.117 18.1665 12.117 17.9948C12.117 17.4065 12.117 16.7935 12.117 16.1806ZM11.3918 2.67226C11.6725 2.67226 11.9532 2.67226 12.2573 2.67226C12.3743 2.67226 12.4444 2.62323 12.4444 2.47613C12.4444 2.23097 12.4444 1.98581 12.4444 1.74065C12.4444 1.61806 12.3977 1.56903 12.2807 1.56903C11.6959 1.56903 11.1345 1.56903 10.5497 1.56903C10.4094 1.56903 10.3626 1.61806 10.3626 1.76516C10.3626 2.01032 10.3626 2.23097 10.3626 2.47613C10.3626 2.62323 10.4094 2.67226 10.5497 2.67226C10.8304 2.67226 11.1111 2.67226 11.3918 2.67226ZM12.9357 3.55484C12.9357 3.57936 12.9357 3.57936 12.9357 3.55484C13.1696 3.55484 13.4035 3.55484 13.6608 3.55484H13.6842C13.8947 3.55484 13.9181 3.53032 13.8246 3.33419C13.731 3.11355 13.731 2.91742 13.8012 2.69677C13.8947 2.47613 13.8713 2.45161 13.6374 2.45161C13.076 2.45161 13.1696 2.37806 13.1462 2.96645C13.1462 3.30968 13.0058 3.43226 12.6784 3.45677C12.4912 3.45677 12.3041 3.45677 12.117 3.45677C12.0702 3.45677 12 3.43226 12 3.50581C12 3.57936 12.0702 3.57936 12.117 3.57936C12.3977 3.57936 12.6784 3.55484 12.9357 3.55484Z" fill="black"/>
<path d="M8.53809 8.06578C8.53809 7.23223 9.21645 6.54578 10.0118 6.54578C10.8071 6.54578 11.4621 7.23223 11.4621 8.09029C11.4621 8.92384 10.8071 9.61029 10.0118 9.61029C9.19306 9.61029 8.53809 8.92384 8.53809 8.06578ZM10.0118 7.33029C9.59072 7.33029 9.28662 7.649 9.28662 8.09029C9.28662 8.50707 9.61411 8.82578 10.0118 8.82578C10.4094 8.82578 10.7369 8.50707 10.7369 8.09029C10.7135 7.649 10.4094 7.33029 10.0118 7.33029Z" fill="black"/>
<path d="M7.158 12.7729C7.01765 12.7729 6.85391 12.7729 6.71356 12.7729C6.66677 12.7729 6.61999 12.7974 6.57321 12.7729C6.33929 12.6258 6.47964 12.4051 6.45625 12.209C6.43286 12.1109 6.47964 12.0129 6.5966 12.0129C6.97087 12.0129 7.34514 12.0129 7.71941 12.0129C7.81297 12.0129 7.88315 12.0619 7.88315 12.1845V12.209C7.88315 12.9445 7.95332 12.7974 7.36853 12.7974C7.29835 12.7729 7.22818 12.7729 7.158 12.7729Z" fill="black"/>
<path d="M12.8186 12.7729C12.6315 12.7729 12.4443 12.7729 12.2806 12.7729C12.1636 12.7729 12.0934 12.7239 12.0934 12.6013C12.0934 11.8903 12.0233 12.0129 12.6081 11.9884C12.842 11.9884 13.0993 11.9884 13.3332 11.9884C13.4736 11.9884 13.5437 12.0374 13.5437 12.1845C13.5437 12.8955 13.5905 12.7484 13.0291 12.7729C12.9589 12.7729 12.8888 12.7729 12.8186 12.7729Z" fill="black"/>
<path d="M7.15779 11.0813C6.97065 11.0813 6.78352 11.0813 6.61978 11.0813C6.50282 11.0813 6.45603 11.0322 6.45603 10.9097C6.45603 10.8851 6.45603 10.8851 6.45603 10.8606C6.45603 10.1742 6.40925 10.2968 6.97065 10.2968C7.22796 10.2968 7.46188 10.2968 7.71919 10.2968C7.85954 10.2968 7.90633 10.3458 7.90633 10.4929C7.90633 11.2039 7.95311 11.0813 7.39171 11.0813C7.29814 11.0813 7.22796 11.0813 7.15779 11.0813Z" fill="black"/>
<path d="M12.7952 11.0813C12.6315 11.0813 12.4443 11.0813 12.2806 11.0813C12.1636 11.0813 12.0934 11.0322 12.0934 10.8851C12.0934 10.1742 12.0233 10.2968 12.6081 10.2968C12.842 10.2968 13.0993 10.2968 13.3332 10.2968C13.4736 10.2968 13.5203 10.3703 13.5203 10.4929C13.5203 11.1793 13.5671 11.0568 13.0057 11.0813C12.9356 11.0813 12.8654 11.0813 12.7952 11.0813Z" fill="black"/>
<path d="M9.98838 11.0813C9.82463 11.0813 9.66089 11.0813 9.47376 11.0813C9.3568 11.0813 9.28662 11.0323 9.28662 10.8852C9.28662 10.7381 9.28662 10.6155 9.28662 10.4684C9.28662 10.3213 9.3568 10.2723 9.47376 10.2723C9.82463 10.2723 10.1755 10.2723 10.5264 10.2723C10.6433 10.2723 10.7135 10.3213 10.7135 10.4684C10.7135 10.6155 10.7135 10.7381 10.7135 10.8852C10.7135 11.0323 10.6433 11.0813 10.5264 11.0813C10.3393 11.0813 10.1521 11.0813 9.98838 11.0813Z" fill="black"/>
<path d="M9.98841 12.7729C9.82467 12.7729 9.66093 12.7729 9.47379 12.7729C9.33344 12.7729 9.26327 12.7239 9.28666 12.5768C9.31005 11.8903 9.19309 12.0129 9.82467 11.9884C10.0586 11.9884 10.2925 11.9884 10.5264 11.9884C10.6668 11.9884 10.737 12.0374 10.7136 12.1845C10.6902 12.871 10.8071 12.7484 10.1755 12.7729C10.1054 12.7729 10.0586 12.7729 9.98841 12.7729Z" fill="black"/>
<path d="M3.20454 11.0568C3.20454 10.8607 3.20454 10.6645 3.20454 10.4929C3.20454 10.3703 3.25133 10.3213 3.36829 10.3213H3.39168C4.04665 10.3213 3.95308 10.2478 3.95308 10.8852C3.95308 11.1303 3.95308 11.4 3.95308 11.6452C3.95308 11.7678 3.9063 11.8413 3.76595 11.8168C3.6256 11.8168 3.50864 11.8168 3.36829 11.8168C3.22794 11.8168 3.18115 11.7678 3.18115 11.6207C3.20454 11.4245 3.20454 11.2284 3.20454 11.0568Z" fill="black"/>
<path d="M3.95313 13.9007C3.95313 14.0723 3.95313 14.2684 3.95313 14.44C3.95313 14.5871 3.90634 14.6361 3.76599 14.6361C3.11102 14.6361 3.22798 14.7097 3.20459 14.0968C3.20459 13.8516 3.20459 13.631 3.20459 13.3858C3.20459 13.1897 3.27477 13.1161 3.43851 13.1407C3.53208 13.1407 3.62564 13.1407 3.71921 13.1407C3.90634 13.1161 3.97652 13.2142 3.95313 13.4103C3.95313 13.5819 3.95313 13.729 3.95313 13.9007Z" fill="black"/>
<path d="M3.953 16.72C3.953 16.8916 3.953 17.0878 3.953 17.2594C3.953 17.382 3.90622 17.4555 3.76587 17.4555C3.08751 17.431 3.20447 17.5536 3.20447 16.8916C3.20447 16.6465 3.20447 16.4013 3.20447 16.1562C3.20447 16.0336 3.25125 15.96 3.36821 15.96C4.04657 15.96 3.92961 15.8865 3.953 16.4994C3.953 16.5975 3.953 16.671 3.953 16.72Z" fill="black"/>
<path d="M2.24561 11.0568C2.24561 11.2284 2.24561 11.4 2.24561 11.5961C2.24561 11.7432 2.19882 11.8168 2.03508 11.8168C1.4035 11.7923 1.52046 11.9148 1.49707 11.2774C1.49707 11.0323 1.49707 10.7871 1.49707 10.5174C1.49707 10.3703 1.54385 10.3213 1.6842 10.3213C2.36257 10.3213 2.22222 10.2477 2.24561 10.8607C2.24561 10.9097 2.24561 10.9832 2.24561 11.0568Z" fill="black"/>
<path d="M2.24547 13.9006C2.24547 14.0722 2.24547 14.2684 2.24547 14.44C2.24547 14.5626 2.19869 14.6361 2.05834 14.6361C1.37997 14.6361 1.52032 14.7097 1.52032 14.0968C1.52032 13.8516 1.52032 13.6064 1.52032 13.3613C1.52032 13.2142 1.56711 13.1406 1.70746 13.1406C2.33904 13.1651 2.22208 13.0426 2.24547 13.68C2.24547 13.7535 2.24547 13.8271 2.24547 13.9006Z" fill="black"/>
<path d="M2.24539 16.7445C2.24539 16.9406 2.24539 17.1368 2.24539 17.3084C2.24539 17.431 2.19861 17.48 2.08165 17.48C1.3799 17.48 1.52025 17.5781 1.52025 16.9406C1.52025 16.671 1.52025 16.4258 1.52025 16.1561C1.52025 16.0335 1.56703 15.9845 1.68399 15.9845H1.70738C2.36235 15.9845 2.24539 15.911 2.24539 16.4993C2.24539 16.5729 2.24539 16.6464 2.24539 16.7445Z" fill="black"/>
<path d="M16.7954 11.0568C16.7954 11.2284 16.7954 11.4245 16.7954 11.5962C16.7954 11.7187 16.7486 11.7923 16.6082 11.7678C16.4679 11.7678 16.3509 11.7678 16.2106 11.7678C16.0936 11.7678 16.0234 11.7187 16.0234 11.5962C16.0234 11.2039 16.0234 10.8362 16.0234 10.4439C16.0234 10.3213 16.0702 10.2723 16.1872 10.2723H16.2106C16.8889 10.2723 16.7486 10.1987 16.772 10.8116C16.7954 10.9097 16.7954 10.9833 16.7954 11.0568Z" fill="black"/>
<path d="M16.7953 13.8761C16.7953 14.0477 16.7953 14.2439 16.7953 14.4155C16.7953 14.5626 16.7485 14.6361 16.6082 14.6361C15.9766 14.6361 16.0468 14.7342 16.0468 14.0722C16.0468 13.8271 16.0468 13.5819 16.0468 13.3368C16.0468 13.2142 16.0935 13.1406 16.2339 13.1406C16.9123 13.1651 16.7953 13.0426 16.7953 13.7045C16.7953 13.778 16.7953 13.8271 16.7953 13.8761Z" fill="black"/>
<path d="M16.7954 16.7445C16.7954 16.9162 16.7954 17.1123 16.7954 17.2839C16.7954 17.4065 16.7486 17.48 16.6082 17.4555C16.4679 17.4555 16.3509 17.4555 16.2106 17.4555C16.0936 17.4555 16.0234 17.4065 16.0234 17.2839C16.0234 16.8916 16.0234 16.5239 16.0234 16.1316C16.0234 16.0091 16.0702 15.96 16.1872 15.96H16.2106C16.8889 15.96 16.7486 15.8865 16.772 16.4994C16.7954 16.5975 16.7954 16.671 16.7954 16.7445Z" fill="black"/>
<path d="M17.7545 11.0323C17.7545 10.8606 17.7545 10.689 17.7545 10.4929C17.7545 10.1987 17.9885 10.2968 18.1054 10.3213C18.2458 10.3213 18.4563 10.1987 18.4797 10.4929C18.4797 10.8852 18.4797 11.2529 18.4797 11.6452C18.4797 11.7677 18.4329 11.8168 18.3159 11.8168C17.6376 11.8168 17.7779 11.9148 17.7545 11.2774C17.7311 11.1794 17.7545 11.1058 17.7545 11.0323Z" fill="black"/>
<path d="M18.4795 13.9251C18.4795 14.0968 18.4795 14.2438 18.4795 14.4155C18.4795 14.4645 18.4795 14.5135 18.4795 14.538C18.3392 14.7587 18.1287 14.6116 17.9415 14.6361C17.848 14.6606 17.7544 14.6361 17.7544 14.489C17.7544 14.0968 17.7544 13.68 17.7544 13.2877C17.7544 13.1897 17.8012 13.1406 17.8947 13.1406H17.9181C18.5965 13.1406 18.4561 13.0426 18.4795 13.68C18.4795 13.778 18.4795 13.8516 18.4795 13.9251Z" fill="black"/>
<path d="M18.4795 16.7445C18.4795 16.9161 18.4795 17.1123 18.4795 17.2839C18.4795 17.4065 18.4328 17.48 18.3158 17.48C17.6374 17.4555 17.7778 17.5781 17.7544 16.9407C17.7544 16.6955 17.7544 16.4503 17.7544 16.1807C17.7544 16.0581 17.8012 16.009 17.9181 15.9845C18.4795 15.9355 18.4795 15.9355 18.4795 16.5239C18.4795 16.5974 18.4795 16.671 18.4795 16.7445Z" fill="black"/>
</svg>
