<svg width="32" height="32" viewBox="0 0 32 32" fill="none" xmlns="http://www.w3.org/2000/svg">
<circle cx="16" cy="16" r="15.5" stroke="#E1E1E1"/>
<g clip-path="url(#clip0_0_282)">
<path d="M21.9998 22C21.1427 22 20.2855 22 19.4284 22C19.4284 21.9752 19.4284 21.9503 19.4284 21.9255C19.4284 20.4845 19.4284 19.0311 19.4284 17.5901C19.4284 17.2795 19.3911 16.9814 19.2918 16.6832C19.1924 16.3851 19.0185 16.1242 18.7203 15.9752C18.4595 15.8385 18.1862 15.8137 17.9004 15.8634C17.416 15.9379 17.093 16.2112 16.8694 16.6336C16.7327 16.8696 16.7079 17.1304 16.7079 17.4037C16.7079 18.9068 16.7079 20.41 16.7079 21.9255C16.7079 21.9503 16.7079 21.9752 16.7079 22C15.8508 22 14.9936 22 14.1365 22C14.1365 19.3292 14.1365 16.6584 14.1365 13.9876C14.9936 13.9876 15.8508 13.9876 16.7079 13.9876C16.7079 14.3603 16.7079 14.7205 16.7079 15.0808H16.7203C16.7576 15.0186 16.8073 14.969 16.8445 14.9068C17.093 14.5714 17.3787 14.2857 17.7514 14.087C18.1116 13.8882 18.5091 13.8013 18.9191 13.7888C19.3539 13.7764 19.7762 13.8261 20.1862 13.9876C20.7824 14.2112 21.2296 14.6087 21.5402 15.1677C21.7886 15.6149 21.9253 16.087 21.975 16.5839C21.9998 16.8447 22.0247 17.118 22.0247 17.3913C22.0247 18.8944 22.0247 20.41 22.0247 21.9131C21.9998 21.9503 21.9998 21.9752 21.9998 22Z" fill="black"/>
<path d="M10 13.9876C10.8571 13.9876 11.7143 13.9876 12.5714 13.9876C12.5714 16.6584 12.5714 19.3292 12.5714 22C11.7143 22 10.8571 22 10 22C10 19.3292 10 16.6584 10 13.9876Z" fill="black"/>
<path d="M11.4036 12.7702C11.0185 12.7702 10.6955 12.6708 10.4223 12.4099C10.2111 12.2112 10.0744 11.9503 10.0247 11.6646C9.96262 11.3292 9.99989 11.0062 10.1614 10.7081C10.385 10.2857 10.7452 10.0621 11.2049 10.0124C11.4409 9.98759 11.6769 10 11.9129 10.087C12.2483 10.2112 12.4968 10.4348 12.6334 10.7578C12.8198 11.1677 12.8322 11.5777 12.6459 11.9876C12.4347 12.4596 12.062 12.6957 11.5527 12.7578C11.4906 12.7578 11.4285 12.7702 11.4036 12.7702Z" fill="black"/>
</g>
<defs>
<clipPath id="clip0_0_282">
<rect width="12" height="12" fill="white" transform="translate(10 10)"/>
</clipPath>
</defs>
</svg>
