<svg width="32" height="32" viewBox="0 0 32 32" fill="none" xmlns="http://www.w3.org/2000/svg">
<circle cx="16" cy="16" r="15.5" stroke="#E1E1E1"/>
<g clip-path="url(#clip0_0_302)">
<path d="M15.4999 10C17.5383 10 15.8957 10 17.5383 10C20.9917 10 21.724 10.2196 21.9219 10.2596C23.1093 10.4892 23.7129 11.178 23.8712 12.5458C23.9405 13.1248 23.9801 13.7038 23.99 14.2829C24.0098 15.5308 24.0197 16.7787 23.9801 18.0266C23.9603 18.6955 23.8811 19.3744 23.7525 20.0333C23.5744 20.9617 22.8421 21.6007 21.8724 21.7105C20.9225 21.8103 19.9725 21.8902 19.0226 21.9301C16.3707 22.0399 13.7187 22.02 11.0668 21.8802C10.4731 21.8503 9.8794 21.7904 9.29558 21.7105C8.17742 21.5607 7.48475 20.9018 7.29674 19.7737C7.01968 18.1864 6.95041 16.589 7.03947 14.9917C7.08894 13.9834 7.178 12.9751 7.34622 11.9867C7.51444 10.9983 8.23679 10.3594 9.22631 10.2496C10.1861 10.1398 11.146 10.0599 12.1058 10.03C13.2339 9.99003 14.3619 10 15.4999 10ZM13.8474 13.3844C13.8474 15.1315 13.8474 16.8186 13.8474 18.5757C15.3515 17.7072 16.8061 16.8586 18.32 15.98C16.8061 15.1015 15.3515 14.2529 13.8474 13.3844Z" fill="black"/>
</g>
<defs>
<clipPath id="clip0_0_302">
<rect width="17" height="12" fill="white" transform="translate(7 10)"/>
</clipPath>
</defs>
</svg>
