<svg width="32" height="32" viewBox="0 0 32 32" fill="none" xmlns="http://www.w3.org/2000/svg">
<path d="M17.5065 21.996H14.5055H14.4654C14.1613 21.996 13.8651 21.9779 13.551 21.9679C13.1997 21.9575 12.8503 21.9105 12.5087 21.8278C11.7553 21.6549 11.0938 21.2064 10.654 20.5703C10.2975 20.0441 10.0902 19.431 10.054 18.7962C10.022 18.3958 10.018 17.9773 10 17.5668C10 17.5448 10 17.5207 10 17.4987V14.4952C10.001 14.4745 10.001 14.4538 10 14.4332C10 14.2189 9.99982 14.0027 10.0178 13.7884C10.0227 13.3703 10.0697 12.9537 10.158 12.545C10.3208 11.794 10.7547 11.1296 11.3765 10.6788C11.9112 10.3052 12.5398 10.0888 13.191 10.054C13.5912 10.022 14.0053 10.018 14.4134 10H14.4935H17.4945H17.5346C17.8387 10 18.1346 10.018 18.4487 10.028C18.8001 10.0385 19.1494 10.0855 19.4911 10.1682C20.2444 10.3411 20.9059 10.7896 21.3457 11.4256C21.7026 11.9517 21.9101 12.5649 21.946 13.1997C21.978 13.6002 21.982 14.0187 22 14.4291C22 14.4532 22 14.4752 22 14.4972V17.5007C21.999 17.5201 21.999 17.5394 22 17.5588C22 17.8511 21.9822 18.1455 21.9722 18.4378C21.9631 18.7796 21.9201 19.1197 21.8439 19.453C21.6823 20.1954 21.2555 20.8533 20.6436 21.3032C20.1023 21.6887 19.4624 21.9117 18.7989 21.9459C18.3988 21.9779 17.9847 21.9819 17.5766 22L17.5065 21.996ZM16.006 20.9267C16.4521 20.9267 16.8962 20.9267 17.3424 20.9267C17.8838 20.9355 18.4253 20.908 18.9631 20.8446C19.3133 20.802 19.6492 20.6801 19.9453 20.4882C20.1799 20.327 20.3789 20.1196 20.5303 19.8785C20.6816 19.6375 20.7824 19.3679 20.8258 19.0866C20.8879 18.7343 20.9179 18.3771 20.9156 18.0193C20.9376 16.5016 20.9597 14.9858 20.8937 13.468C20.884 13.1548 20.8295 12.8446 20.7317 12.547C20.6488 12.2827 20.5109 12.0391 20.3271 11.832C20.1433 11.6249 19.9176 11.4592 19.6652 11.3456C19.3085 11.189 18.9244 11.1046 18.5349 11.0973C18.0728 11.0773 17.6084 11.0592 17.1463 11.0612C16.0079 11.0612 14.8677 11.0732 13.7293 11.0852C13.4382 11.0866 13.1477 11.1175 12.8628 11.1774C12.3519 11.2708 11.8944 11.5522 11.5804 11.9663C11.3218 12.3279 11.1714 12.7557 11.1464 13.1997C11.1124 13.6002 11.0903 14.0007 11.0883 14.4011C11.0883 15.5918 11.0883 16.7826 11.0883 17.9733C11.083 18.3432 11.1138 18.7127 11.1803 19.0766C11.242 19.4131 11.3787 19.7314 11.5804 20.0077C11.9068 20.4353 12.3842 20.7218 12.9148 20.8086C13.2848 20.8723 13.6599 20.9031 14.0353 20.9007C14.6916 20.9167 15.3478 20.9187 16.006 20.9267Z" fill="#2D2E2C"/>
<path d="M16.002 18.9604C15.2139 18.9599 14.4583 18.6462 13.9012 18.0882C13.3441 17.5303 13.031 16.7737 13.031 15.9849C13.0321 15.1972 13.3453 14.442 13.9019 13.8849C14.4585 13.3279 15.213 13.0145 16.0001 13.0134C16.7882 13.014 17.544 13.3277 18.1012 13.8857C18.6583 14.4436 18.9711 15.2002 18.9711 15.989C18.97 16.7767 18.657 17.5319 18.1004 18.0889C17.5438 18.646 16.7891 18.9593 16.002 18.9604ZM17.9348 15.9869C17.9348 15.4739 17.7312 14.9819 17.3687 14.6192C17.0063 14.2564 16.5146 14.0527 16.002 14.0527C15.7482 14.0524 15.4968 14.1022 15.2623 14.1991C15.0277 14.2961 14.8145 14.4384 14.6348 14.6178C14.4552 14.7972 14.3126 15.0103 14.2153 15.2449C14.1179 15.4794 14.0678 15.7309 14.0675 15.9849C14.067 16.2394 14.1165 16.4915 14.2136 16.7268C14.3106 16.9621 14.4532 17.1759 14.6329 17.356C14.8126 17.536 15.0261 17.6788 15.261 17.7761C15.496 17.8735 15.7477 17.9235 16.002 17.9232C16.2562 17.9237 16.5081 17.8741 16.743 17.7771C16.978 17.6801 17.1915 17.5378 17.3714 17.3581C17.5513 17.1784 17.6939 16.965 17.7912 16.7301C17.8886 16.4951 17.9387 16.2433 17.9387 15.989L17.9348 15.9869Z" fill="#2D2E2C"/>
<path d="M19.1848 13.5498C19.0869 13.5495 18.99 13.5299 18.8997 13.4921C18.8094 13.4543 18.7275 13.3991 18.6585 13.3295C18.5896 13.2599 18.535 13.1774 18.498 13.0867C18.4609 12.996 18.4421 12.8989 18.4426 12.8009C18.4429 12.7024 18.4626 12.605 18.5008 12.5142C18.5389 12.4234 18.5947 12.341 18.6649 12.272C18.735 12.2029 18.8182 12.1484 18.9095 12.1117C19.0008 12.075 19.0985 12.0568 19.1969 12.0581C19.2949 12.0589 19.3918 12.079 19.4819 12.1175C19.5721 12.1559 19.6537 12.2118 19.7221 12.282C19.7906 12.3522 19.8444 12.4352 19.8806 12.5264C19.9169 12.6175 19.9347 12.7149 19.9332 12.813C19.931 13.0098 19.8511 13.1978 19.7109 13.3359C19.5707 13.474 19.3815 13.5509 19.1848 13.5498Z" fill="#2D2E2C"/>
<circle cx="16" cy="16" r="15.5" stroke="#E1E1E1"/>
</svg>
