<svg width="32" height="32" viewBox="0 0 32 32" fill="none" xmlns="http://www.w3.org/2000/svg">
<path d="M19.001 10C19.001 10.7362 19.001 11.4734 19.001 12.2096C18.6267 12.2063 18.2482 12.1693 17.878 12.2085C17.2545 12.2728 16.9296 12.6169 16.8528 13.2616C16.8139 13.5905 16.8307 13.9259 16.8107 14.2581C16.8002 14.4334 16.8686 14.4835 17.0316 14.4813C17.6078 14.4737 18.1851 14.4813 18.7613 14.4759C18.9148 14.4748 18.9621 14.5172 18.9274 14.6839C18.8055 15.2719 18.6909 15.8622 18.5857 16.4546C18.5573 16.6125 18.4921 16.6582 18.3449 16.655C17.9296 16.6474 17.5132 16.6517 17.0978 16.6517C16.8129 16.6517 16.8118 16.6517 16.8118 16.949C16.8118 18.5531 16.8086 20.1573 16.815 21.7625C16.816 21.9454 16.7645 22.0031 16.5868 21.9999C16.0568 21.989 15.5268 21.9966 14.9979 21.9966C14.7109 21.9966 14.7109 21.9966 14.7109 21.7026C14.7109 20.0984 14.7077 18.4943 14.7151 16.8891C14.7161 16.6931 14.6572 16.643 14.4764 16.6474C14.0547 16.6593 13.631 16.6452 13.2093 16.655C13.0495 16.6582 12.998 16.6005 13.0001 16.4394C13.0064 15.8556 13.0064 15.273 13.0001 14.6893C12.998 14.5292 13.0474 14.4693 13.2093 14.4737C13.6446 14.4835 14.081 14.4715 14.5163 14.4802C14.6625 14.4824 14.7203 14.441 14.713 14.282C14.7014 14.0119 14.693 13.7386 14.714 13.4696C14.7529 12.9741 14.7635 12.4677 14.877 11.9885C15.1452 10.8614 15.9979 9.99347 17.3523 10.012C17.9012 10.0207 18.4511 10.0044 19.001 10Z" fill="#2D2E2C"/>
<circle cx="16" cy="16" r="15.5" stroke="#E1E1E1"/>
</svg>
