<svg width="96" height="48" viewBox="0 0 96 48" fill="none" xmlns="http://www.w3.org/2000/svg">
<path d="M58.7184 14.784C59.4544 14.784 60.0838 14.8907 60.6064 15.104C61.1291 15.3067 61.6358 15.6267 62.1264 16.064L61.2944 16.992C60.8784 16.6613 60.4678 16.4213 60.0624 16.272C59.6678 16.112 59.2411 16.032 58.7824 16.032C58.2064 16.032 57.7318 16.1653 57.3584 16.432C56.9851 16.6987 56.7984 17.088 56.7984 17.6C56.7984 17.92 56.8624 18.192 56.9904 18.416C57.1184 18.6293 57.3531 18.8267 57.6944 19.008C58.0464 19.1893 58.5531 19.3813 59.2144 19.584C59.9078 19.7973 60.4838 20.0267 60.9424 20.272C61.4011 20.5173 61.7691 20.8587 62.0464 21.296C62.3344 21.7227 62.4784 22.2667 62.4784 22.928C62.4784 23.568 62.3184 24.1333 61.9984 24.624C61.6891 25.1147 61.2358 25.4987 60.6384 25.776C60.0518 26.0533 59.3531 26.192 58.5424 26.192C57.0171 26.192 55.7691 25.7173 54.7984 24.768L55.6304 23.84C56.0784 24.2027 56.5318 24.48 56.9904 24.672C57.4491 24.8533 57.9611 24.944 58.5264 24.944C59.2091 24.944 59.7744 24.7787 60.2224 24.448C60.6704 24.1067 60.8944 23.616 60.8944 22.976C60.8944 22.6133 60.8251 22.3147 60.6864 22.08C60.5478 21.8347 60.3078 21.616 59.9664 21.424C59.6358 21.232 59.1504 21.04 58.5104 20.848C57.3798 20.5067 56.5531 20.096 56.0304 19.616C55.5078 19.136 55.2464 18.4853 55.2464 17.664C55.2464 17.1093 55.3904 16.6133 55.6784 16.176C55.9771 15.7387 56.3878 15.3973 56.9104 15.152C57.4438 14.9067 58.0464 14.784 58.7184 14.784ZM68.5572 17.376C69.3252 17.376 69.9225 17.6053 70.3492 18.064C70.7865 18.5227 71.0052 19.152 71.0052 19.952V26H69.5332V20.16C69.5332 19.5627 69.4159 19.1413 69.1812 18.896C68.9572 18.6507 68.6265 18.528 68.1892 18.528C67.7519 18.528 67.3625 18.656 67.0212 18.912C66.6799 19.168 66.3599 19.5307 66.0612 20V26H64.5892V14.192L66.0612 14.032V18.736C66.7225 17.8293 67.5545 17.376 68.5572 17.376ZM79.5828 24.032C79.5828 24.3733 79.6415 24.6293 79.7588 24.8C79.8761 24.96 80.0521 25.0827 80.2868 25.168L79.9508 26.192C79.5135 26.1387 79.1615 26.016 78.8948 25.824C78.6281 25.632 78.4308 25.3333 78.3028 24.928C77.7375 25.7707 76.9001 26.192 75.7908 26.192C74.9588 26.192 74.3028 25.9573 73.8228 25.488C73.3428 25.0187 73.1028 24.4053 73.1028 23.648C73.1028 22.752 73.4228 22.064 74.0628 21.584C74.7135 21.104 75.6308 20.864 76.8148 20.864H78.1108V20.24C78.1108 19.6427 77.9668 19.216 77.6788 18.96C77.3908 18.704 76.9481 18.576 76.3508 18.576C75.7321 18.576 74.9748 18.7253 74.0788 19.024L73.7108 17.952C74.7561 17.568 75.7268 17.376 76.6228 17.376C77.6148 17.376 78.3561 17.6213 78.8468 18.112C79.3375 18.592 79.5828 19.28 79.5828 20.176V24.032ZM76.1268 25.088C76.9695 25.088 77.6308 24.6507 78.1108 23.776V21.84H77.0068C75.4495 21.84 74.6708 22.416 74.6708 23.568C74.6708 24.0693 74.7935 24.448 75.0388 24.704C75.2841 24.96 75.6468 25.088 76.1268 25.088ZM86.2219 17.376C86.5206 17.376 86.7979 17.408 87.0539 17.472L86.7819 18.912C86.5259 18.848 86.2806 18.816 86.0459 18.816C85.5233 18.816 85.1019 19.008 84.7819 19.392C84.4619 19.776 84.2113 20.3733 84.0299 21.184V26H82.5579V17.568H83.8219L83.9659 19.28C84.1899 18.6507 84.4939 18.176 84.8779 17.856C85.2619 17.536 85.7099 17.376 86.2219 17.376ZM94.7864 21.536C94.7864 21.7813 94.7758 22.032 94.7544 22.288H89.3784C89.4424 23.216 89.6771 23.8987 90.0824 24.336C90.4878 24.7733 91.0104 24.992 91.6504 24.992C92.0558 24.992 92.4291 24.9333 92.7704 24.816C93.1118 24.6987 93.4691 24.512 93.8424 24.256L94.4824 25.136C93.5864 25.84 92.6051 26.192 91.5384 26.192C90.3651 26.192 89.4478 25.808 88.7864 25.04C88.1358 24.272 87.8104 23.216 87.8104 21.872C87.8104 20.9973 87.9491 20.224 88.2264 19.552C88.5144 18.8693 88.9198 18.336 89.4424 17.952C89.9758 17.568 90.5998 17.376 91.3144 17.376C92.4344 17.376 93.2931 17.744 93.8904 18.48C94.4878 19.216 94.7864 20.2347 94.7864 21.536ZM93.3304 21.104C93.3304 20.272 93.1651 19.6373 92.8344 19.2C92.5038 18.7627 92.0078 18.544 91.3464 18.544C90.1411 18.544 89.4851 19.4293 89.3784 21.2H93.3304V21.104Z" fill="black"/>
<g filter="url(#filter0_d_0_311)">
<circle cx="24" cy="20" r="20" fill="white"/>
<circle cx="24" cy="20" r="19.5" stroke="#F8F8F8"/>
</g>
<g clip-path="url(#clip0_0_311)">
<path d="M17.3333 19.7989C17.3505 19.7701 17.3649 19.7414 17.3821 19.7098C17.5344 19.3994 17.8534 19.2385 18.1781 19.3132C18.5085 19.3879 18.7241 19.6581 18.7241 20.0115C18.7241 21.6983 18.7241 23.3822 18.7241 25.069C18.7241 25.2787 18.7241 25.2787 18.9367 25.2787C22.3131 25.2787 25.6896 25.2787 29.0631 25.2787C29.2787 25.2787 29.2787 25.2787 29.2787 25.0575C29.2787 23.3707 29.2787 21.6868 29.2787 20C29.2787 19.4742 29.8074 19.1437 30.2844 19.3678C30.4856 19.4598 30.5976 19.6264 30.6666 19.8305C30.6666 21.8046 30.6666 23.7759 30.6666 25.75C30.5373 26.2356 30.2327 26.5402 29.747 26.6696C25.9166 26.6696 22.0833 26.6696 18.2528 26.6696C17.77 26.5402 17.4626 26.2356 17.3333 25.75C17.3333 23.7644 17.3333 21.7816 17.3333 19.7989Z" fill="black"/>
<path d="M24.1724 13.3333C24.3362 13.3879 24.4655 13.4885 24.5862 13.6092C25.4109 14.4368 26.2385 15.2615 27.0632 16.0891C27.3563 16.385 27.3908 16.7644 27.1552 17.0603C26.8851 17.4052 26.4109 17.4253 26.0833 17.1006C25.6667 16.6896 25.2558 16.2759 24.842 15.8621C24.8046 15.8247 24.7673 15.7902 24.7213 15.7471C24.6839 15.8075 24.6983 15.8649 24.6983 15.9195C24.6983 18.3362 24.6954 20.7557 24.6983 23.1724C24.6983 23.4483 24.6035 23.6695 24.365 23.8132C24.1351 23.954 23.8908 23.9598 23.6552 23.8276C23.4196 23.6954 23.2989 23.4856 23.2989 23.2155C23.2989 21.8161 23.2989 20.4195 23.2989 19.0201C23.2989 17.9856 23.2989 16.9511 23.2989 15.9167C23.2989 15.8649 23.2989 15.8132 23.2989 15.7586C23.227 15.7644 23.2012 15.8161 23.1667 15.8506C22.7443 16.2701 22.3305 16.6925 21.9052 17.1063C21.5259 17.4741 20.9339 17.3563 20.7443 16.8793C20.6236 16.5718 20.7098 16.3075 20.9368 16.0804C21.5604 15.4569 22.1839 14.8333 22.8046 14.2126C23.0086 14.0086 23.2127 13.8103 23.4138 13.6034C23.5316 13.4799 23.6638 13.3822 23.8276 13.3276C23.9425 13.3333 24.0575 13.3333 24.1724 13.3333Z" fill="black"/>
</g>
<defs>
<filter id="filter0_d_0_311" x="0" y="0" width="48" height="48" filterUnits="userSpaceOnUse" color-interpolation-filters="sRGB">
<feFlood flood-opacity="0" result="BackgroundImageFix"/>
<feColorMatrix in="SourceAlpha" type="matrix" values="0 0 0 0 0 0 0 0 0 0 0 0 0 0 0 0 0 0 127 0" result="hardAlpha"/>
<feOffset dy="4"/>
<feGaussianBlur stdDeviation="2"/>
<feComposite in2="hardAlpha" operator="out"/>
<feColorMatrix type="matrix" values="0 0 0 0 0 0 0 0 0 0 0 0 0 0 0 0 0 0 0.1 0"/>
<feBlend mode="normal" in2="BackgroundImageFix" result="effect1_dropShadow_0_311"/>
<feBlend mode="normal" in="SourceGraphic" in2="effect1_dropShadow_0_311" result="shape"/>
</filter>
<clipPath id="clip0_0_311">
<rect width="13.3333" height="13.3333" fill="white" transform="translate(17.3333 13.3333)"/>
</clipPath>
</defs>
</svg>
